<?xml version="1.0" encoding="utf-8"?>
<!-- Generator: Adobe Illustrator 27.5.0, SVG Export Plug-In . SVG Version: 6.00 Build 0)  -->
<svg version="1.1" xmlns="http://www.w3.org/2000/svg" xmlns:xlink="http://www.w3.org/1999/xlink" x="0px" y="0px"
	 viewBox="0 0 750 500" style="enable-background:new 0 0 750 500;" xml:space="preserve">
<g id="Background_Simple">
	<g>
		<path style="fill:#92E3A9;" d="M687.379,93.329c-12.065,1.253-26.77,5.087-33.316,5.958
			c-34.452,4.583-68.985,8.574-103.578,11.933c-56.242,5.461-112.773,9.518-169.305,9.518c-84.13,0-166.945-17.184-250.198-26.916
			c-19.795-2.314-79.399-15.307-88.919,11.007c-12.349,34.132-11.152,75.419-12.014,111.313
			c-0.919,38.29-1.791,76.535-1.628,114.799c0.056,13.1,1.493,26.585,7.648,38.15c7.705,14.478,21.696,20.893,37.253,23.176
			c28.142,4.131,56.682,3.504,85.025,3.108c38.319-0.535,76.606-2.739,114.847-5.126c66.19-4.132,133.438-11.923,199.819-8.762
			c46.599,2.219,92.53,10.518,138.343,18.838c18.555,3.37,36.795,8.393,55.578,10.484c15.211,1.693,38.444,3.48,50.742-7.872
			c10.328-9.534,10.395-32.261,11.528-44.942c2.441-27.319,2.36-54.891,1.728-82.287c-1.184-51.342-2.786-104.751-13.072-155.239
			C714.372,103.348,706.292,91.364,687.379,93.329z"/>
		<path style="opacity:0.7;fill:#FFFFFF;" d="M687.379,93.329c-12.065,1.253-26.77,5.087-33.316,5.958
			c-34.452,4.583-68.985,8.574-103.578,11.933c-56.242,5.461-112.773,9.518-169.305,9.518c-84.13,0-166.945-17.184-250.198-26.916
			c-19.795-2.314-79.399-15.307-88.919,11.007c-12.349,34.132-11.152,75.419-12.014,111.313
			c-0.919,38.29-1.791,76.535-1.628,114.799c0.056,13.1,1.493,26.585,7.648,38.15c7.705,14.478,21.696,20.893,37.253,23.176
			c28.142,4.131,56.682,3.504,85.025,3.108c38.319-0.535,76.606-2.739,114.847-5.126c66.19-4.132,133.438-11.923,199.819-8.762
			c46.599,2.219,92.53,10.518,138.343,18.838c18.555,3.37,36.795,8.393,55.578,10.484c15.211,1.693,38.444,3.48,50.742-7.872
			c10.328-9.534,10.395-32.261,11.528-44.942c2.441-27.319,2.36-54.891,1.728-82.287c-1.184-51.342-2.786-104.751-13.072-155.239
			C714.372,103.348,706.292,91.364,687.379,93.329z"/>
	</g>
</g>
<g id="Cell_Culture_Plate">
	<g>
		<g>
			
				<circle style="fill:#FFFFFF;stroke:#263238;stroke-linecap:round;stroke-linejoin:round;stroke-miterlimit:10;" cx="645.413" cy="321.492" r="53.401"/>
			
				<ellipse transform="matrix(0.7071 -0.7071 0.7071 0.7071 -29.0713 546.7195)" style="fill:#FFFFFF;stroke:#263238;stroke-linecap:round;stroke-linejoin:round;stroke-miterlimit:10;" cx="645.413" cy="308.452" rx="53.401" ry="53.401"/>
			
				<circle style="fill:#FFFFFF;stroke:#263238;stroke-linecap:round;stroke-linejoin:round;stroke-miterlimit:10;" cx="645.413" cy="308.452" r="50.306"/>
			<path style="fill:#92E3A9;stroke:#263238;stroke-linecap:round;stroke-linejoin:round;stroke-miterlimit:10;" d="
				M645.413,271.982c-23.662,0-43.673,15.621-50.29,37.112c0.346,27.486,22.722,49.664,50.29,49.664
				c27.568,0,49.944-22.178,50.29-49.664C689.086,287.603,669.075,271.982,645.413,271.982z"/>
		</g>
		
			<circle style="fill:#92E3A9;stroke:#263238;stroke-linecap:round;stroke-linejoin:round;stroke-miterlimit:10;" cx="622.141" cy="309.585" r="4.81"/>
		<path style="fill:#92E3A9;stroke:#263238;stroke-linecap:round;stroke-linejoin:round;stroke-miterlimit:10;" d="M666.974,325.363
			c0,1.594-1.292,2.886-2.886,2.886s-2.886-1.292-2.886-2.886c0-1.594,1.292-2.886,2.886-2.886S666.974,323.769,666.974,325.363z"/>
		<path style="fill:#92E3A9;stroke:#263238;stroke-linecap:round;stroke-linejoin:round;stroke-miterlimit:10;" d="M663.896,290.151
			c0,1.063-0.862,1.924-1.924,1.924c-1.063,0-1.924-0.862-1.924-1.924c0-1.063,0.861-1.924,1.924-1.924
			C663.034,288.227,663.896,289.089,663.896,290.151z"/>
		<path style="fill:#92E3A9;stroke:#263238;stroke-linecap:round;stroke-linejoin:round;stroke-miterlimit:10;" d="M646.963,312.856
			c0,1.063-0.862,1.924-1.924,1.924c-1.063,0-1.924-0.861-1.924-1.924c0-1.063,0.862-1.924,1.924-1.924
			C646.101,310.932,646.963,311.794,646.963,312.856z"/>
		<path style="fill:#92E3A9;stroke:#263238;stroke-linecap:round;stroke-linejoin:round;stroke-miterlimit:10;" d="M630.8,336.139
			c0,1.807-1.464,3.271-3.271,3.271c-1.806,0-3.271-1.465-3.271-3.271c0-1.807,1.465-3.271,3.271-3.271
			C629.336,332.868,630.8,334.332,630.8,336.139z"/>
		<path style="fill:#92E3A9;stroke:#263238;stroke-linecap:round;stroke-linejoin:round;stroke-miterlimit:10;" d="M649.657,332.483
			c0,1.063-0.861,1.924-1.924,1.924c-1.063,0-1.924-0.861-1.924-1.924c0-1.063,0.861-1.924,1.924-1.924
			C648.795,330.559,649.657,331.42,649.657,332.483z"/>
		
			<circle style="fill:#92E3A9;stroke:#263238;stroke-linecap:round;stroke-linejoin:round;stroke-miterlimit:10;" cx="632.147" cy="290.344" r="1.347"/>
		<path style="fill:#92E3A9;stroke:#263238;stroke-linecap:round;stroke-linejoin:round;stroke-miterlimit:10;" d="M646.963,301.119
			c0,0.531-0.431,0.962-0.962,0.962c-0.531,0-0.962-0.431-0.962-0.962c0-0.531,0.431-0.962,0.962-0.962
			C646.532,300.157,646.963,300.588,646.963,301.119z"/>
		<path style="fill:#92E3A9;stroke:#263238;stroke-linecap:round;stroke-linejoin:round;stroke-miterlimit:10;" d="M681.982,303.62
			c0,1.7-1.378,3.079-3.079,3.079c-1.7,0-3.079-1.378-3.079-3.079c0-1.7,1.378-3.079,3.079-3.079
			C680.604,300.542,681.982,301.92,681.982,303.62z"/>
	</g>
</g>
<g id="Arrows">
	<g>
		<g>
			<g>
				<path style="fill:none;stroke:#263238;stroke-width:2;stroke-linecap:round;stroke-linejoin:round;" d="M577.134,118.99
					c-17.331,4.186-30.204,19.796-30.204,38.413c0,17.096,10.857,31.657,26.052,37.163"/>
				<g>
					<polygon style="fill:#263238;" points="569.901,199.561 581.071,196.557 572.886,188.384 					"/>
				</g>
			</g>
		</g>
		<g>
			<g>
				<path style="fill:none;stroke:#263238;stroke-width:2;stroke-linecap:round;stroke-linejoin:round;" d="M594.41,196.117
					c18.007-3.685,31.553-19.617,31.553-38.714c0-16.167-9.709-30.067-23.615-36.187"/>
				<g>
					<polygon style="fill:#263238;" points="605.752,116.422 594.41,118.689 602.043,127.379 					"/>
				</g>
			</g>
		</g>
	</g>
</g>
<g id="Syringe">
	<g>
		<polygon style="fill:#FFFFFF;stroke:#263238;stroke-linecap:round;stroke-linejoin:round;stroke-miterlimit:10;" points="
			646.476,236.537 641.928,236.537 641.36,225.91 647.044,225.91 		"/>
		
			<rect x="636.416" y="218.331" style="fill:#FFFFFF;stroke:#263238;stroke-linecap:round;stroke-linejoin:round;stroke-miterlimit:10;" width="15.573" height="8.125"/>
		
			<rect x="631.338" y="116.769" style="fill:#FFFFFF;stroke:#263238;stroke-linecap:round;stroke-linejoin:round;stroke-miterlimit:10;" width="25.729" height="101.562"/>
		<g>
			
				<rect x="633.159" y="80.524" style="fill:#FFFFFF;stroke:#263238;stroke-linecap:round;stroke-linejoin:round;stroke-miterlimit:10;" width="22.086" height="68.904"/>
			
				<rect x="638.209" y="80.524" style="fill:#FFFFFF;stroke:#263238;stroke-linecap:round;stroke-linejoin:round;stroke-miterlimit:10;" width="11.986" height="68.904"/>
		</g>
		<polygon style="fill:#263238;stroke:#263238;stroke-linecap:round;stroke-linejoin:round;stroke-miterlimit:10;" points="
			650.195,140.226 638.209,140.226 633.159,140.226 633.159,149.427 638.209,149.427 650.195,149.427 655.245,149.427 
			655.245,140.226 		"/>
		
			<rect x="633.201" y="150.54" style="fill:#92E3A9;stroke:#263238;stroke-linecap:round;stroke-linejoin:round;stroke-miterlimit:10;" width="22.003" height="66.013"/>
		
			<line style="fill:none;stroke:#263238;stroke-linecap:round;stroke-linejoin:round;stroke-miterlimit:10;" x1="644.085" y1="237.031" x2="644.085" y2="295.358"/>
		
			<rect x="623.87" y="113.498" style="fill:#FFFFFF;stroke:#263238;stroke-linecap:round;stroke-linejoin:round;stroke-miterlimit:10;" width="40.664" height="4.88"/>
		
			<line style="fill:none;stroke:#263238;stroke-linecap:round;stroke-linejoin:round;stroke-miterlimit:10;" x1="635" y1="141.06" x2="640.33" y2="141.06"/>
		
			<line style="fill:none;stroke:#263238;stroke-linecap:round;stroke-linejoin:round;stroke-miterlimit:10;" x1="635" y1="156.163" x2="640.33" y2="156.163"/>
		
			<line style="fill:none;stroke:#263238;stroke-linecap:round;stroke-linejoin:round;stroke-miterlimit:10;" x1="635" y1="161.197" x2="640.33" y2="161.197"/>
		
			<line style="fill:none;stroke:#263238;stroke-linecap:round;stroke-linejoin:round;stroke-miterlimit:10;" x1="635" y1="166.231" x2="640.33" y2="166.231"/>
		
			<line style="fill:none;stroke:#263238;stroke-linecap:round;stroke-linejoin:round;stroke-miterlimit:10;" x1="635" y1="171.265" x2="640.33" y2="171.265"/>
		
			<line style="fill:none;stroke:#263238;stroke-linecap:round;stroke-linejoin:round;stroke-miterlimit:10;" x1="635" y1="176.299" x2="640.33" y2="176.299"/>
		
			<line style="fill:none;stroke:#263238;stroke-linecap:round;stroke-linejoin:round;stroke-miterlimit:10;" x1="635" y1="181.333" x2="640.33" y2="181.333"/>
		
			<line style="fill:none;stroke:#263238;stroke-linecap:round;stroke-linejoin:round;stroke-miterlimit:10;" x1="635" y1="186.367" x2="640.33" y2="186.367"/>
		
			<line style="fill:none;stroke:#263238;stroke-linecap:round;stroke-linejoin:round;stroke-miterlimit:10;" x1="635" y1="191.402" x2="640.33" y2="191.402"/>
		
			<line style="fill:none;stroke:#263238;stroke-linecap:round;stroke-linejoin:round;stroke-miterlimit:10;" x1="635" y1="196.436" x2="640.33" y2="196.436"/>
		
			<line style="fill:none;stroke:#263238;stroke-linecap:round;stroke-linejoin:round;stroke-miterlimit:10;" x1="635" y1="201.47" x2="640.33" y2="201.47"/>
		
			<line style="fill:none;stroke:#263238;stroke-linecap:round;stroke-linejoin:round;stroke-miterlimit:10;" x1="635" y1="206.504" x2="640.33" y2="206.504"/>
		
			<rect x="625.084" y="78.088" style="fill:#FFFFFF;stroke:#263238;stroke-linecap:round;stroke-linejoin:round;stroke-miterlimit:10;" width="38.236" height="4.07"/>
	</g>
</g>
<g id="Microscope">
	<g>
		
			<rect x="524.68" y="386.062" style="fill:#FFFFFF;stroke:#263238;stroke-linecap:round;stroke-linejoin:round;stroke-miterlimit:10;" width="15.062" height="13.086"/>
		<path style="fill:#92E3A9;stroke:#263238;stroke-linecap:round;stroke-linejoin:round;stroke-miterlimit:10;" d="M538.355,299.63
			v15.461c7.161,0.344,12.762,2.024,17.12,4.277c8.759,4.528,14.107,13.725,14.107,23.585v31.839
			c0,9.816-7.958,17.774-17.774,17.774h-27.392v7.654h49.748c4.227,0,7.654-3.427,7.654-7.654l0,0v-64.085
			c0-7.441-3.067-14.589-8.55-19.619C555.572,292.629,538.355,299.63,538.355,299.63z"/>
		
			<rect x="526.067" y="258.877" style="fill:#FFFFFF;stroke:#263238;stroke-linecap:round;stroke-linejoin:round;stroke-miterlimit:10;" width="12.288" height="56.214"/>
		
			<rect x="524.68" y="274.538" style="fill:#FFFFFF;stroke:#263238;stroke-linecap:round;stroke-linejoin:round;stroke-miterlimit:10;" width="15.062" height="56.214"/>
		
			<rect x="524.68" y="257.212" style="fill:#263238;stroke:#263238;stroke-linecap:round;stroke-linejoin:round;stroke-miterlimit:10;" width="15.062" height="4.566"/>
		
			<rect x="516.335" y="384.563" style="fill:#263238;stroke:#263238;stroke-linecap:round;stroke-linejoin:round;stroke-miterlimit:10;" width="31.751" height="2.809"/>
		
			<rect x="522.583" y="286.937" style="fill:#FFFFFF;stroke:#263238;stroke-linecap:round;stroke-linejoin:round;stroke-miterlimit:10;" width="19.255" height="64.698"/>
		
			<rect x="522.583" y="290.2" style="fill:#263238;stroke:#263238;stroke-linecap:round;stroke-linejoin:round;stroke-miterlimit:10;" width="19.255" height="64.697"/>
		<polygon style="fill:#FFFFFF;stroke:#263238;stroke-linecap:round;stroke-linejoin:round;stroke-miterlimit:10;" points="
			539.913,363.369 524.509,363.369 522.583,355.213 541.839,355.213 		"/>
		
			<rect x="528.205" y="363.242" style="fill:#FFFFFF;stroke:#263238;stroke-linecap:round;stroke-linejoin:round;stroke-miterlimit:10;" width="8.012" height="11.147"/>
		
			<ellipse transform="matrix(0.606 -0.7954 0.7954 0.606 -28.8087 551.3579)" style="fill:#FFFFFF;stroke:#263238;stroke-linecap:round;stroke-linejoin:round;stroke-miterlimit:10;" cx="542.219" cy="304.763" rx="11.519" ry="11.519"/>
		
			<ellipse transform="matrix(0.7071 -0.7071 0.7071 0.7071 -56.6876 472.6694)" style="fill:#FFFFFF;stroke:#263238;stroke-linecap:round;stroke-linejoin:round;stroke-miterlimit:10;" cx="542.219" cy="304.763" rx="9.249" ry="9.249"/>
		<path style="fill:#263238;stroke:#263238;stroke-linecap:round;stroke-linejoin:round;stroke-miterlimit:10;" d="M555.781,394.963
			l-0.093,0.025c-1.235-2.101-3.512-3.516-6.126-3.516c-3.925,0-7.107,3.182-7.107,7.107l0.308,15.149h22.654L555.781,394.963z"/>
		<path style="fill:#FFFFFF;stroke:#263238;stroke-linecap:round;stroke-linejoin:round;stroke-miterlimit:10;" d="M554.161,398.58
			c0-2.54-2.059-4.598-4.598-4.598c-2.54,0-4.598,2.059-4.598,4.598c0,2.54,2.059,4.598,4.598,4.598
			C552.102,403.178,554.161,401.119,554.161,398.58z"/>
		<path style="fill:#263238;stroke:#263238;stroke-linecap:round;stroke-linejoin:round;stroke-miterlimit:10;" d="M604.883,422.331
			H501.472l1.984-3.082c1.986-3.085,5.404-4.949,9.073-4.949h81.297c3.669,0,7.087,1.864,9.073,4.949L604.883,422.331z"/>
	</g>
</g>
<g id="Human_Body">
	<path style="fill:#92E3A9;" d="M537.801,94.13c0,0,0.323-4.519-1.775-7.262c-2.098-2.744-6.94-2.744-9.038-1.937
		c-2.098,0.807-4.196,2.259-4.68,4.68c-0.484,2.421-0.323,5.326-0.323,5.326s-1.614,0.323-1.13,2.098
		c0.484,1.775,1.452,2.744,1.452,2.744s0.484,2.259,0.807,3.228c0.323,0.968,2.098,3.066,2.098,3.066s0.323,2.421-0.807,3.228
		c-1.13,0.807-3.873,1.452-7.747,2.744c-3.873,1.291-7.424,4.68-8.231,9.038c-0.807,4.357-0.323,7.908-0.323,7.908l-1.453,9.199
		c0,0-1.452,3.389-1.614,7.908c-0.161,4.519-0.968,13.557-0.968,13.557s0.968,0.646-1.291,1.775
		c-2.259,1.13-2.421,1.937-2.743,2.743c-0.323,0.807-0.484,2.421-1.13,2.905c-0.646,0.484-2.744,0-2.421,1.614
		c0.323,1.614,2.582,0.645,2.582,0.645l1.452-0.323c0,0,0,7.424,0,8.231s0.484,1.937,1.291,0.968c0,0,0.807,1.13,1.291,0.646
		l0.786-0.454c0,0,0.954,0.393,1.402,0.224c0.449-0.168,1.346-1.402,1.346-1.402s0.224,0.673,1.066-0.337
		c0.842-1.01,0.954-2.244,1.178-3.085c0.224-0.842,0.954-5.442,1.178-6.227c0.224-0.785,0-4.937,0-4.937l-0.168-1.795
		c0,0,3.646-9.929,4.263-12.286c0.617-2.356,1.29-4.824,1.515-6.844c0.224-2.02,1.178-6.003,1.178-6.003l0.393-0.168
		c0,0,0.056,9.481-0.168,10.715c-0.225,1.234-1.907,3.534-1.739,6.451c0.168,2.917-0.841,7.854-1.122,9.537
		c-0.281,1.683-2.412,7.405-1.515,16.773c0.898,9.368,2.776,14.622,3.867,18.787c1.091,4.165,0.793,6.842,0.297,10.809
		c-0.496,3.966,0.297,5.751,1.686,10.809c1.388,5.057,3.867,10.412,4.165,12.395c0.297,1.983-0.595,2.182-1.091,3.372
		c-0.496,1.19-3.173,4.264-3.272,5.553c-0.099,1.289,0.793,2.281,3.272,2.975c2.479,0.694,4.264,0.694,5.454-0.893
		c1.19-1.587,1.289-2.578,1.19-3.768c-0.099-1.19-0.397-1.388,0-2.479c0.397-1.091,0.893-1.686,0.595-3.57
		c-0.297-1.884-0.099-0.198-0.893-4.066c-0.793-3.867,0.099-8.925,0.099-11.106c0-2.182,0-7.338-0.496-9.916
		c-0.496-2.578-0.595-1.388-0.892-4.958c-0.297-3.57,0.198-3.967,0.198-6.545c0-2.578-0.496-4.561-0.496-4.561
		s1.983-10.313,2.082-10.71c0.099-0.397,1.587-7.239,1.587-7.239s0.595,0.099,0.793,0.595c0.198,0.496,2.776,17.254,2.776,17.254
		s-0.992,2.677-0.892,4.462c0.099,1.785,1.19,6.842,1.19,6.842s-0.793,3.173-1.487,8.131c-0.694,4.958,0.397,10.115,0.297,13.189
		c-0.099,3.074-0.397,4.561-0.694,5.95c-0.298,1.388-0.793,3.372-0.298,4.859c0.496,1.488,0.496,1.488,0.496,1.488
		s-0.397,2.281-0.297,4.066c0.099,1.785,0.892,2.975,2.082,3.173c1.19,0.198,1.983-0.893,1.983-0.893s1.388,0.893,3.074,0.397
		c1.686-0.496,2.876-1.19,2.479-2.578c-0.397-1.388-0.694-2.38-1.785-3.867c-1.091-1.488-1.785-1.686-2.083-3.471
		c-0.297-1.785-0.198-3.867,0.397-5.454c0.595-1.587,3.173-6.446,4.363-12.891c1.19-6.446,0.992-6.842,0.694-9.123
		c-0.298-2.281-0.099-7.14,0.397-9.619c0.496-2.479,3.967-11.404,3.967-18.642c0-7.239-1.487-16.163-1.884-17.75
		c-0.397-1.587-0.694-4.661-0.694-4.661s0.595-2.38,0-4.462c-0.595-2.082-0.992-2.876-1.487-5.156
		c-0.496-2.281-0.893-5.751-0.893-6.049s0-3.867,0-3.867s1.884,4.561,2.777,7.735c0.892,3.173,0.892,5.057,1.884,8.032
		c0.992,2.975,3.074,8.528,3.471,9.718c0.397,1.19-0.496,3.272-0.099,6.445c0.397,3.173,0.793,8.627,1.487,9.42
		c0.694,0.793,1.487-0.099,1.487-0.099s0.297,1.587,0.892,1.785c0.595,0.198,1.388-0.397,1.388-0.397s0.198,0.992,1.19,0.595
		c0.992-0.397,1.19-1.091,1.19-1.091s1.487,0.595,1.289-1.388s-0.694-4.661-0.694-5.256s0.099-2.479,0.099-2.479
		s0.992,0.793,1.785,0.892c0.793,0.099,1.587,0.893,2.181,0c0.595-0.892,0.099-1.19-0.992-1.884
		c-1.091-0.694-1.19-0.892-1.983-2.082c-0.793-1.19-0.099-1.487-1.785-2.975c-1.686-1.487-2.776-2.182-2.776-3.471
		c0-1.289,1.289-9.321,0.099-15.073c-1.19-5.751-1.785-7.239-1.983-8.131c-0.198-0.892-1.983-7.635-1.983-7.635
		s1.587-6.247-1.19-11.503c-2.776-5.256-6.545-4.859-9.42-6.148c-2.876-1.289-5.156-1.587-5.553-2.38
		c-0.397-0.793-0.595-2.182-0.595-2.182s2.578-3.57,2.677-4.76c0.099-1.19,0.099-1.19,0.099-1.19s1.586-0.595,1.983-3.669
		C539.867,93.589,537.801,94.13,537.801,94.13z"/>
</g>
<g id="Cells">
	<g>
		
			<ellipse transform="matrix(0.7071 -0.7071 0.7071 0.7071 -140.4345 276.2196)" style="fill:#263238;" cx="263.209" cy="307.629" rx="17.401" ry="17.401"/>
		
			<circle style="fill:#92E3A9;stroke:#263238;stroke-linecap:round;stroke-linejoin:round;stroke-miterlimit:10;" cx="264.142" cy="302.968" r="7.768"/>
	</g>
	<g>
		
			<ellipse transform="matrix(0.9239 -0.3827 0.3827 0.9239 -109.5172 130.9179)" style="fill:#263238;" cx="274.326" cy="340.749" rx="12.895" ry="12.895"/>
		<path style="fill:#92E3A9;stroke:#263238;stroke-linecap:round;stroke-linejoin:round;stroke-miterlimit:10;" d="M280.774,337.295
			c0,3.179-2.577,5.757-5.757,5.757s-5.757-2.577-5.757-5.757c0-3.179,2.577-5.757,5.757-5.757S280.774,334.116,280.774,337.295z"/>
	</g>
	<g>
		
			<ellipse transform="matrix(0.2298 -0.9732 0.9732 0.2298 -141.2816 499.0593)" style="fill:#263238;" cx="244.654" cy="338.788" rx="9.957" ry="9.957"/>
		<path style="fill:#92E3A9;stroke:#263238;stroke-linecap:round;stroke-linejoin:round;stroke-miterlimit:10;" d="M249.632,336.121
			c0,2.455-1.99,4.445-4.445,4.445s-4.445-1.99-4.445-4.445c0-2.455,1.99-4.445,4.445-4.445S249.632,333.666,249.632,336.121z"/>
	</g>
	<g>
		
			<ellipse transform="matrix(0.9863 -0.1648 0.1648 0.9863 -41.143 46.3634)" style="fill:#263238;" cx="258.758" cy="271.059" rx="12.895" ry="12.895"/>
		<path style="fill:#92E3A9;stroke:#263238;stroke-linecap:round;stroke-linejoin:round;stroke-miterlimit:10;" d="M258.344,278.362
			c-2.713-1.657-3.569-5.2-1.912-7.914c1.657-2.713,5.201-3.569,7.914-1.912s3.569,5.201,1.912,7.914
			C264.6,279.163,261.057,280.019,258.344,278.362z"/>
	</g>
</g>
<g id="Chromosome">
	<g>
		<path style="fill:#FFFFFF;stroke:#263238;stroke-linecap:round;stroke-linejoin:round;stroke-miterlimit:10;" d="M210.538,286.403
			c5.015-2.869,10.034-6.928,11.974-11.133c3.091-6.697,2.583-31.151,2.354-38.486c-0.09-2.87-2.487-5.128-5.359-5.035
			c-2.87,0.089-5.125,2.489-5.035,5.359c0.433,13.881-0.027,30.777-1.402,33.804c-0.524,1.136-2.551,3.328-6.537,5.768
			c-3.114,1.906-5.92,3.05-7.049,3.36c-1.128-0.31-3.936-1.454-7.049-3.36c-3.986-2.44-6.013-4.632-6.537-5.767
			c-1.375-3.027-1.834-19.923-1.401-33.804c0.089-2.87-2.165-5.27-5.035-5.359c-2.846-0.09-5.269,2.164-5.359,5.035
			c-0.229,7.335-0.737,31.79,2.354,38.486c1.94,4.204,6.959,8.264,11.974,11.133c-5.331,4.566-10.511,11.09-12.24,16.945
			c-2.959,10.022-2.187,53.186-2.089,58.075c0.057,2.835,2.373,5.095,5.197,5.095c0.035,0,0.071,0,0.106-0.001
			c2.871-0.057,5.152-2.431,5.095-5.303c-0.357-17.844-0.22-48.535,1.666-54.922c1.874-6.345,9.959-13.25,13.321-15.071
			c3.361,1.82,11.447,8.726,13.32,15.071c1.885,6.385,2.022,37.076,1.666,54.922c-0.057,2.871,2.224,5.245,5.095,5.302
			c0.036,0.001,0.071,0.001,0.106,0.001c2.823,0,5.14-2.26,5.197-5.096c0.098-4.888,0.869-48.053-2.09-58.075
			C221.049,297.494,215.868,290.969,210.538,286.403z"/>
		<g>
			<path style="fill:#92E3A9;stroke:#263238;stroke-linecap:round;stroke-linejoin:round;stroke-miterlimit:10;" d="
				M184.342,345.381h-10.403c0.002,1.299,0.006,2.555,0.013,3.755h10.401C184.347,347.899,184.343,346.647,184.342,345.381z"/>
			<path style="fill:#92E3A9;stroke:#263238;stroke-linecap:round;stroke-linejoin:round;stroke-miterlimit:10;" d="M184.374,242.58
				h-10.406c-0.054,3.505-0.073,7.824,0.027,12.205h10.427C184.332,250.913,184.316,246.713,184.374,242.58z"/>
			<path style="fill:#92E3A9;stroke:#263238;stroke-linecap:round;stroke-linejoin:round;stroke-miterlimit:10;" d="
				M174.928,311.583c-0.118,1.324-0.224,2.738-0.317,4.225h10.399c0.097-1.543,0.206-2.959,0.328-4.225H174.928z"/>
			<path style="fill:#92E3A9;stroke:#263238;stroke-linecap:round;stroke-linejoin:round;stroke-miterlimit:10;" d="
				M214.626,248.682h10.418c0.003-1.647-0.007-3.226-0.025-4.694h-10.408C214.626,245.557,214.631,247.128,214.626,248.682z"/>
			<path style="fill:#92E3A9;stroke:#263238;stroke-linecap:round;stroke-linejoin:round;stroke-miterlimit:10;" d="
				M174.151,326.605h10.407c0.017-0.633,0.035-1.259,0.054-1.878h-10.406C174.187,325.349,174.169,325.976,174.151,326.605z"/>
			<path style="fill:#92E3A9;stroke:#263238;stroke-linecap:round;stroke-linejoin:round;stroke-miterlimit:10;" d="
				M212.907,271.214h10.756c0.085-0.452,0.166-0.918,0.242-1.408h-10.495c-0.106,0.466-0.219,0.842-0.339,1.107
				C213.027,271.005,212.97,271.108,212.907,271.214z"/>
			<path style="fill:#92E3A9;stroke:#263238;stroke-linecap:round;stroke-linejoin:round;stroke-miterlimit:10;" d="
				M224.914,330.829h-10.409c0.051,2.763,0.085,5.603,0.104,8.449h10.407C224.999,336.52,224.967,333.671,224.914,330.829z"/>
			<path style="fill:#92E3A9;stroke:#263238;stroke-linecap:round;stroke-linejoin:round;stroke-miterlimit:10;" d="M224.973,354.3
				h-10.399c-0.012,1.122-0.026,2.221-0.042,3.286h10.399C224.946,356.621,224.96,355.521,224.973,354.3z"/>
			<path style="fill:#92E3A9;stroke:#263238;stroke-linecap:round;stroke-linejoin:round;stroke-miterlimit:10;" d="
				M224.582,320.033h-10.401c0.034,0.762,0.065,1.549,0.094,2.347h10.404C224.65,321.587,224.617,320.805,224.582,320.033z"/>
			<path style="fill:#92E3A9;stroke:#263238;stroke-linecap:round;stroke-linejoin:round;stroke-miterlimit:10;" d="
				M214.246,262.295h10.415c0.116-1.828,0.2-3.725,0.26-5.633h-10.425C214.434,258.676,214.351,260.573,214.246,262.295z"/>
			<path style="fill:#92E3A9;stroke:#263238;stroke-linecap:round;stroke-linejoin:round;stroke-miterlimit:10;" d="
				M184.815,263.703h-10.411c0.035,0.476,0.074,0.946,0.114,1.408h10.409C184.887,264.66,184.85,264.192,184.815,263.703z"/>
		</g>
	</g>
</g>
<g id="Test_Tubes">
	<g>
		<path style="fill:#FFFFFF;stroke:#263238;stroke-linecap:round;stroke-linejoin:round;stroke-miterlimit:10;" d="M175.726,139.99
			v58.401c0,4.646,3.766,8.411,8.411,8.411c4.646,0,8.411-3.766,8.411-8.411V139.99H175.726z"/>
		<path style="fill:#92E3A9;stroke:#263238;stroke-linecap:round;stroke-linejoin:round;stroke-miterlimit:10;" d="M184.137,203.802
			c-2.984,0-5.412-2.427-5.412-5.411v-40.686h10.823v40.686C189.549,201.375,187.121,203.802,184.137,203.802z"/>
		
			<rect x="172.184" y="136.235" style="fill:#FFFFFF;stroke:#263238;stroke-linecap:round;stroke-linejoin:round;stroke-miterlimit:10;" width="23.906" height="3.754"/>
		<path style="fill:#FFFFFF;stroke:#263238;stroke-linecap:round;stroke-linejoin:round;stroke-miterlimit:10;" d="M206.022,139.99
			v58.401c0,4.646,3.766,8.411,8.411,8.411c4.645,0,8.411-3.766,8.411-8.411V139.99H206.022z"/>
		<path style="fill:#92E3A9;stroke:#263238;stroke-linecap:round;stroke-linejoin:round;stroke-miterlimit:10;" d="M214.433,203.802
			c-2.984,0-5.412-2.427-5.412-5.411v-19.911h10.823v19.911C219.845,201.375,217.417,203.802,214.433,203.802z"/>
		
			<rect x="202.48" y="136.235" style="fill:#FFFFFF;stroke:#263238;stroke-linecap:round;stroke-linejoin:round;stroke-miterlimit:10;" width="23.906" height="3.754"/>
	</g>
</g>
<g id="DNA">
	<g>
		
			<rect x="83.568" y="69.06" style="fill:#263238;stroke:#263238;stroke-linecap:round;stroke-linejoin:round;stroke-miterlimit:10;" width="61.156" height="3.247"/>
		
			<rect x="83.568" y="77.494" style="fill:#263238;stroke:#263238;stroke-linecap:round;stroke-linejoin:round;stroke-miterlimit:10;" width="61.156" height="3.247"/>
		
			<rect x="83.568" y="401.722" style="fill:#263238;stroke:#263238;stroke-linecap:round;stroke-linejoin:round;stroke-miterlimit:10;" width="61.156" height="3.247"/>
		
			<rect x="83.568" y="410.156" style="fill:#263238;stroke:#263238;stroke-linecap:round;stroke-linejoin:round;stroke-miterlimit:10;" width="61.156" height="3.247"/>
		<g>
			
				<rect x="83.568" y="121.544" style="fill:#263238;stroke:#263238;stroke-linecap:round;stroke-linejoin:round;stroke-miterlimit:10;" width="61.156" height="3.247"/>
			
				<rect x="83.568" y="130.755" style="fill:#263238;stroke:#263238;stroke-linecap:round;stroke-linejoin:round;stroke-miterlimit:10;" width="61.156" height="3.247"/>
			
				<rect x="83.568" y="139.965" style="fill:#263238;stroke:#263238;stroke-linecap:round;stroke-linejoin:round;stroke-miterlimit:10;" width="61.156" height="3.247"/>
			
				<rect x="83.568" y="149.176" style="fill:#263238;stroke:#263238;stroke-linecap:round;stroke-linejoin:round;stroke-miterlimit:10;" width="61.156" height="3.247"/>
		</g>
		<g>
			
				<rect x="83.568" y="191.613" style="fill:#263238;stroke:#263238;stroke-linecap:round;stroke-linejoin:round;stroke-miterlimit:10;" width="61.156" height="3.247"/>
			
				<rect x="83.568" y="200.823" style="fill:#263238;stroke:#263238;stroke-linecap:round;stroke-linejoin:round;stroke-miterlimit:10;" width="61.156" height="3.247"/>
			
				<rect x="83.568" y="210.034" style="fill:#263238;stroke:#263238;stroke-linecap:round;stroke-linejoin:round;stroke-miterlimit:10;" width="61.156" height="3.247"/>
			
				<rect x="83.568" y="219.245" style="fill:#263238;stroke:#263238;stroke-linecap:round;stroke-linejoin:round;stroke-miterlimit:10;" width="61.156" height="3.247"/>
		</g>
		<g>
			
				<rect x="83.568" y="261.681" style="fill:#263238;stroke:#263238;stroke-linecap:round;stroke-linejoin:round;stroke-miterlimit:10;" width="61.156" height="3.247"/>
			
				<rect x="83.568" y="270.892" style="fill:#263238;stroke:#263238;stroke-linecap:round;stroke-linejoin:round;stroke-miterlimit:10;" width="61.156" height="3.247"/>
			
				<rect x="83.568" y="280.103" style="fill:#263238;stroke:#263238;stroke-linecap:round;stroke-linejoin:round;stroke-miterlimit:10;" width="61.156" height="3.247"/>
			
				<rect x="83.568" y="289.313" style="fill:#263238;stroke:#263238;stroke-linecap:round;stroke-linejoin:round;stroke-miterlimit:10;" width="61.156" height="3.247"/>
		</g>
		<g>
			
				<rect x="83.568" y="331.75" style="fill:#263238;stroke:#263238;stroke-linecap:round;stroke-linejoin:round;stroke-miterlimit:10;" width="61.156" height="3.247"/>
			
				<rect x="83.568" y="340.961" style="fill:#263238;stroke:#263238;stroke-linecap:round;stroke-linejoin:round;stroke-miterlimit:10;" width="61.156" height="3.247"/>
			
				<rect x="83.568" y="350.171" style="fill:#263238;stroke:#263238;stroke-linecap:round;stroke-linejoin:round;stroke-miterlimit:10;" width="61.156" height="3.247"/>
			
				<rect x="83.568" y="359.382" style="fill:#263238;stroke:#263238;stroke-linecap:round;stroke-linejoin:round;stroke-miterlimit:10;" width="61.156" height="3.247"/>
		</g>
		<g>
			<path style="fill:#FFFFFF;stroke:#263238;stroke-linecap:round;stroke-linejoin:round;stroke-miterlimit:10;" d="
				M113.855,376.809c-16.471,8.773-35.14,18.717-35.14,38.906c0,0.458,0.087,0.892,0.211,1.31h8.845
				c0.124-0.418,0.211-0.852,0.211-1.31c0-14.626,14.684-22.447,30.23-30.728c16.472-8.773,35.141-18.717,35.141-38.907
				s-18.669-30.133-35.141-38.906c-15.546-8.28-30.23-16.101-30.23-30.727c0-14.626,14.684-22.447,30.23-30.726
				c16.471-8.773,35.141-18.715,35.141-38.905c0-20.189-18.669-30.132-35.141-38.904c-15.546-8.279-30.23-16.1-30.23-30.725
				c0-14.626,14.684-22.446,30.23-30.726c16.405-8.737,34.985-18.639,35.134-38.665h-9.268
				c-0.161,14.47-14.762,22.252-30.222,30.487c-16.472,8.772-35.141,18.715-35.141,38.905c0,20.189,18.669,30.132,35.141,38.904
				c15.546,8.279,30.23,16.1,30.23,30.725s-14.684,22.446-30.23,30.726c-16.472,8.773-35.141,18.716-35.141,38.905
				c0,20.191,18.669,30.133,35.141,38.906c15.546,8.28,30.23,16.101,30.23,30.727C144.086,360.707,129.402,368.528,113.855,376.809z
				"/>
		</g>
		<g>
			<path style="fill:#263238;stroke:#263238;stroke-linecap:round;stroke-linejoin:round;stroke-miterlimit:10;" d="
				M112.666,311.103c-1.116,0.595-2.243,1.195-3.373,1.804c1.529,0.83,3.055,1.643,4.563,2.446c1.768,0.942,3.523,1.878,5.248,2.818
				c3.157-1.688,6.358-3.433,9.468-5.296c-3.133-1.834-6.34-3.559-9.483-5.234C116.989,308.799,114.837,309.947,112.666,311.103z"/>
			<path style="fill:#263238;stroke:#263238;stroke-linecap:round;stroke-linejoin:round;stroke-miterlimit:10;" d="
				M111.774,238.652c-3.157,1.688-6.359,3.433-9.468,5.295c3.133,1.834,6.34,3.559,9.483,5.234c2.1-1.158,4.252-2.306,6.423-3.462
				c1.116-0.595,2.243-1.195,3.373-1.803c-1.529-0.83-3.056-1.643-4.563-2.446C115.254,240.529,113.499,239.593,111.774,238.652z"/>
			<path style="fill:#263238;stroke:#263238;stroke-linecap:round;stroke-linejoin:round;stroke-miterlimit:10;" d="M111.774,99.393
				c-3.157,1.688-6.359,3.433-9.468,5.295c3.133,1.834,6.34,3.559,9.484,5.234c2.1-1.158,4.252-2.306,6.423-3.462
				c1.116-0.595,2.243-1.195,3.373-1.803c-1.529-0.83-3.056-1.643-4.564-2.446C115.254,101.269,113.499,100.333,111.774,99.393z"/>
			<path style="fill:#263238;stroke:#263238;stroke-linecap:round;stroke-linejoin:round;stroke-miterlimit:10;" d="
				M118.212,384.987c1.117-0.595,2.243-1.195,3.374-1.804c-1.529-0.83-3.055-1.643-4.562-2.446
				c-1.768-0.942-3.524-1.878-5.249-2.818c-3.157,1.688-6.358,3.434-9.467,5.296c3.133,1.834,6.34,3.559,9.483,5.234
				C113.889,387.291,116.041,386.144,118.212,384.987z"/>
			<path style="fill:#263238;stroke:#263238;stroke-linecap:round;stroke-linejoin:round;stroke-miterlimit:10;" d="M112.667,171.84
				c-1.117,0.595-2.244,1.195-3.374,1.804c1.529,0.83,3.055,1.643,4.563,2.446c1.768,0.942,3.523,1.878,5.249,2.818
				c3.157-1.688,6.359-3.433,9.468-5.295c-3.133-1.834-6.34-3.559-9.484-5.234C116.989,169.536,114.838,170.684,112.667,171.84z"/>
		</g>
		<g>
			<path style="fill:#92E3A9;stroke:#263238;stroke-linecap:round;stroke-linejoin:round;stroke-miterlimit:10;" d="
				M112.011,307.174c-16.471,8.773-35.141,18.716-35.141,38.906s18.669,30.134,35.141,38.907c15.546,8.28,30.23,16.101,30.23,30.728
				c0,0.458,0.087,0.892,0.211,1.31h8.845c0.124-0.418,0.211-0.852,0.211-1.31c0-20.19-18.669-30.133-35.14-38.906
				c-15.547-8.28-30.231-16.101-30.231-30.728c0-14.626,14.684-22.447,30.23-30.727c16.471-8.773,35.141-18.716,35.141-38.906
				c0-20.19-18.669-30.133-35.141-38.905c-15.546-8.28-30.23-16.1-30.23-30.726s14.684-22.446,30.23-30.725
				c16.471-8.772,35.141-18.715,35.141-38.904c0-20.19-18.669-30.133-35.141-38.905c-15.46-8.234-30.061-16.016-30.222-30.487
				h-9.268c0.149,20.027,18.728,29.928,35.134,38.665c15.546,8.28,30.23,16.1,30.23,30.726c0,14.625-14.684,22.446-30.23,30.725
				c-16.472,8.772-35.141,18.715-35.141,38.904c0,20.19,18.669,30.132,35.141,38.905c15.546,8.279,30.23,16.1,30.23,30.726
				C142.242,291.073,127.558,298.893,112.011,307.174z"/>
		</g>
	</g>
</g>
<g id="Character">
	<g>
		<g>
			<path style="fill:#92E3A9;stroke:#263238;stroke-linecap:round;stroke-linejoin:round;stroke-miterlimit:10;" d="
				M295.301,118.573c0,0-0.41-11.899-0.41-12.515c0-0.615,3.693-9.232,4.719-11.899c1.026-2.667-0.185-3.654-0.147-10.142
				c0.041-6.84,2.382-17.04-1.283-16.582c-5.511,0.689-5.772,8.576-5.772,10.627c0,2.052-2.442,4.197-3.262,5.839
				c-0.821,1.641-5.95,1.231-7.386,0.41c-1.436-0.821-9.597,0.406-13.905-1.851c-4.308-2.257-8.946-5.039-11.818-5.039
				c-2.872,0-4.025-2.342-4.025-2.342s-4.103-0.205-6.155,2.462c-2.052,2.667-1.231,5.95-0.205,7.386
				c1.026,1.436-0.615,5.539,3.283,11.694c3.898,6.155,9.232,10.873,11.899,12.925c2.667,2.052,7.181,6.565,7.796,6.975
				c0.615,0.41,3.898,8.412,3.898,8.412L295.301,118.573z"/>
			<path style="fill:#92E3A9;stroke:#263238;stroke-linecap:round;stroke-linejoin:round;stroke-miterlimit:10;" d="M264.769,83.484
				c-0.55-0.275-5.68-2.84-5.68-2.84s-0.366-3.939,0.092-5.68c0.458-1.741,1.283-3.939-0.367-4.397
				c-1.649-0.458-3.848,3.023-3.848,3.023s-1.557,3.206-1.832,3.939c-0.275,0.733-1.832,3.39-1.649,4.123
				c0.183,0.733,3.298,5.589,3.298,5.589"/>
			<path style="fill:#92E3A9;stroke:#263238;stroke-linecap:round;stroke-linejoin:round;stroke-miterlimit:10;" d="M248.37,73.864
				c0,0,3.023-4.214,5.039-4.031c2.016,0.183,2.016,2.565,1.557,3.756c-0.458,1.191-3.207,5.863-3.207,5.863
				s1.283,4.214,1.741,5.222"/>
			<path style="fill:#92E3A9;stroke:#263238;stroke-linecap:round;stroke-linejoin:round;stroke-miterlimit:10;" d="M244.394,91.948
				c0,0-2.462-9.437-2.462-10.258c0-0.821,2.257-9.437,4.924-10.258c2.667-0.821,2.257,2.462,2.052,3.693s-0.821,4.924-1.026,6.975
				c-0.205,2.052,5.745,8.412,5.745,8.412"/>
			<path style="fill:none;stroke:#263238;stroke-linecap:round;stroke-linejoin:round;stroke-miterlimit:10;" d="M280.53,91.491
				c0,0-1.231,1.846-3.283,5.95c-2.052,4.103-0.205,8.412,1.026,9.643"/>
			<g>
				
					<rect x="248.525" y="77.335" style="fill:#FFFFFF;stroke:#263238;stroke-linecap:round;stroke-linejoin:round;stroke-miterlimit:10;" width="50.675" height="13.598"/>
				
					<rect x="248.525" y="77.335" style="fill:#FFFFFF;stroke:#263238;stroke-linecap:round;stroke-linejoin:round;stroke-miterlimit:10;" width="9.539" height="13.598"/>
				
					<rect x="259.809" y="84.311" style="fill:#92E3A9;stroke:#263238;stroke-linecap:round;stroke-linejoin:round;stroke-miterlimit:10;" width="37.544" height="4.308"/>
			</g>
			<path style="fill:#92E3A9;stroke:#263238;stroke-linecap:round;stroke-linejoin:round;stroke-miterlimit:10;" d="
				M255.779,104.206c0,0-13.005-8.399-13.005-9.754s2.647-14.858,3.085-16.912c0.438-2.054,5.003-4.427,5.315-0.158
				c0.312,4.269-0.813,12.464-0.813,12.464s7.045,5.69,8.67,6.503"/>
		</g>
		<g>
			<path style="fill:#FFFFFF;stroke:#263238;stroke-linecap:round;stroke-linejoin:round;stroke-miterlimit:10;" d="
				M332.072,420.453c0,0-0.366-20.493-3.659-50.866c-3.294-30.373,13.906-118.2,13.906-118.2s-24.518-13.54-30.739-17.931
				c-6.221-4.391-32.935-34.399-34.033-37.692c-1.098-3.294-13.174-71.359-9.515-72.457c3.659-1.098,28.178-6.953,28.178-6.953
				s4.025,11.344,4.391,12.442c0.366,1.098,16.467,46.841,23.42,49.037c6.953,2.196,21.225,8.783,25.25,10.246
				c4.025,1.464,10.246,1.464,15.736,1.83c5.489,0.366,20.859,2.562,20.859,2.562s25.616,2.562,36.229,6.587
				s30.739,24.152,36.228,32.203c5.489,8.051,22.689,43.548,23.786,60.015s-12.808,82.703-12.808,82.703l5.123,48.671"/>
			<g>
				<path style="fill:none;stroke:#263238;stroke-linecap:round;stroke-linejoin:round;stroke-miterlimit:10;" d="M401.954,245.647
					c0,0,12.109-1.615,27.986-7.266"/>
				<path style="fill:none;stroke:#263238;stroke-linecap:round;stroke-linejoin:round;stroke-miterlimit:10;" d="M395.226,224.388
					c0,0-1.884,13.455-0.807,19.913"/>
				<path style="fill:none;stroke:#263238;stroke-linecap:round;stroke-linejoin:round;stroke-miterlimit:10;" d="M414.87,245.647
					c0,0,17.76-3.229,22.873-5.92"/>
			</g>
			
				<line style="fill:none;stroke:#263238;stroke-linecap:round;stroke-linejoin:round;stroke-miterlimit:10;" x1="333.025" y1="217.738" x2="331.706" y2="212.962"/>
			<polyline style="fill:none;stroke:#263238;stroke-linecap:round;stroke-linejoin:round;stroke-miterlimit:10;" points="
				341.586,216.621 342.318,251.386 334.109,221.665 			"/>
			<path style="fill:none;stroke:#263238;stroke-linecap:round;stroke-linejoin:round;stroke-miterlimit:10;" d="M315.97,175.636
				c0,0-8.783,12.808-18.663,16.102"/>
			<path style="fill:none;stroke:#263238;stroke-linecap:round;stroke-linejoin:round;stroke-miterlimit:10;" d="M299.083,197.409
				c-1.487,0.873-3.058,1.681-4.704,2.379"/>
			<path style="fill:none;stroke:#263238;stroke-linecap:round;stroke-linejoin:round;stroke-miterlimit:10;" d="M314.506,183.686
				c0,0-4.668,6.366-12.227,11.664"/>
			<path style="fill:none;stroke:#263238;stroke-linecap:round;stroke-linejoin:round;stroke-miterlimit:10;" d="M393.916,252.118
				c0,0-8.783,21.225-11.71,33.301"/>
			<path style="fill:none;stroke:#263238;stroke-linecap:round;stroke-linejoin:round;stroke-miterlimit:10;" d="M374.249,403.589
				c0.38,4.105,0.638,6.617,0.638,6.617"/>
			<path style="fill:none;stroke:#263238;stroke-linecap:round;stroke-linejoin:round;stroke-miterlimit:10;" d="M372.691,337.383
				c0,0-1.464,26.348-0.366,42.45c0.511,7.496,1.102,14.595,1.587,20.043"/>
		</g>
		<g>
			<path style="fill:#FFFFFF;stroke:#263238;stroke-linecap:round;stroke-linejoin:round;stroke-miterlimit:10;" d="
				M418.389,139.765c0,0-6.372,1.821-7.647,5.28c-1.274,3.459-3.641,7.1-5.28,8.739c-1.639,1.639-10.924,3.095-12.38,5.644
				c-1.457,2.549-8.739,12.927-11.288,22.212c-2.549,9.285-0.364,14.019,1.092,16.204c1.457,2.185,7.829,8.375,10.378,9.467
				c2.549,1.092,5.826,2.185,5.826,2.185s2.003,13.109,1.639,16.568c-0.364,3.459-5.462,18.025-3.641,18.207
				c1.821,0.182,21.12-11.652,30.951-16.386c9.832-4.734,14.201-6.008,14.201-6.008l10.196-1.821c0,0,3.277-2.549,4.006-7.647
				c0.728-5.098-4.188-4.734-8.921-16.386c-4.734-11.652-3.095-42.057-11.106-49.158c-8.011-7.1-14.201-9.831-14.201-9.831
				L418.389,139.765z"/>
			<polygon style="fill:#263238;stroke:#263238;stroke-linecap:round;stroke-linejoin:round;stroke-miterlimit:10;" points="
				399.09,209.496 413.014,208.91 400.531,219.262 			"/>
			<path style="fill:#92E3A9;stroke:#263238;stroke-linecap:round;stroke-linejoin:round;stroke-miterlimit:10;" d="
				M382.886,197.844c1.457,2.185,7.829,8.375,10.378,9.467c2.549,1.092,5.826,2.185,5.826,2.185l9.65-2.731
				c0,0,3.095-1.457,9.649-0.546c6.554,0.91,14.383,0.546,14.383,0.546l-1.457-1.821c0,0-20.391,0.364-22.576-1.274
				c-2.185-1.639-2.549-4.006-0.91-8.739c1.639-4.734,7.101-16.386,7.101-16.386l21.12,10.014l-1.275-3.095
				c0,0-11.106-4.552-19.481-9.65c-8.375-5.098-22.212-16.386-22.212-16.386c-1.457,2.549-8.739,12.927-11.288,22.212
				C379.245,190.926,381.43,195.659,382.886,197.844z"/>
			<path style="fill:none;stroke:#263238;stroke-linecap:round;stroke-linejoin:round;stroke-miterlimit:10;" d="M406.962,177.219
				c1.179,0.669,2.232,1.241,3.074,1.663"/>
			<path style="fill:none;stroke:#263238;stroke-linecap:round;stroke-linejoin:round;stroke-miterlimit:10;" d="M389.89,166.793
				c0,0,7.794,4.972,14.155,8.732"/>
			<path style="fill:none;stroke:#263238;stroke-linecap:round;stroke-linejoin:round;stroke-miterlimit:10;" d="M406.763,189.962
				c0,0-14.355-4.785-18.384-7.303"/>
			<path style="fill:none;stroke:#263238;stroke-linecap:round;stroke-linejoin:round;stroke-miterlimit:10;" d="M397.842,202.118
				c1.452,0.153,3.005,0.227,4.639,0.184"/>
			<path style="fill:none;stroke:#263238;stroke-linecap:round;stroke-linejoin:round;stroke-miterlimit:10;" d="M386.112,198.777
				c0,0,3.33,1.85,8.609,2.874"/>
			<g>
				<path style="fill:#92E3A9;stroke:#263238;stroke-linecap:round;stroke-linejoin:round;stroke-miterlimit:10;" d="
					M418.389,139.765c0,0,4.916,10.742,9.832,27.856c4.916,17.114,3.823,29.859,3.823,31.133c0,1.274-3.641,6.554-3.277,9.285
					c0.364,2.731,8.557,8.375,10.014,11.288c1.456,2.913,4.37,5.644,5.826,5.826c1.456,0.182,9.285,3.095,17.296-1.457
					c8.011-4.552,7.829-8.011,6.372-12.927c-1.457-4.916-3.095-6.554-2.549-8.011c0.546-1.457,4.188,0.182,13.655-10.742
					c9.467-10.924,6.736-27.674,2.367-39.69c-4.37-12.016-38.598-25.125-43.332-25.671c-4.734-0.546-15.476,6.919-17.842,9.285
					C418.207,138.308,418.389,139.765,418.389,139.765z"/>
				<path style="fill:none;stroke:#263238;stroke-linecap:round;stroke-linejoin:round;stroke-miterlimit:10;" d="M422.758,143.77
					c0,0,2.913-2.367,5.098-2.913"/>
				
					<line style="fill:none;stroke:#263238;stroke-linecap:round;stroke-linejoin:round;stroke-miterlimit:10;" x1="427.492" y1="147.776" x2="431.862" y2="147.412"/>
				<path style="fill:none;stroke:#263238;stroke-linecap:round;stroke-linejoin:round;stroke-miterlimit:10;" d="M427.674,158.336
					c0,0,3.823-0.728,4.552-1.092"/>
				<path style="fill:none;stroke:#263238;stroke-linecap:round;stroke-linejoin:round;stroke-miterlimit:10;" d="M430.405,168.713
					c0,0,2.185-0.728,4.37-0.728"/>
				<path style="fill:none;stroke:#263238;stroke-linecap:round;stroke-linejoin:round;stroke-miterlimit:10;" d="M438.598,176.542
					c0,0-4.005,0.728-4.734,0.728"/>
				
					<line style="fill:none;stroke:#263238;stroke-linecap:round;stroke-linejoin:round;stroke-miterlimit:10;" x1="433.865" y1="187.102" x2="438.598" y2="187.102"/>
				<path style="fill:none;stroke:#263238;stroke-linecap:round;stroke-linejoin:round;stroke-miterlimit:10;" d="M433.682,198.572
					c0,0,1.821,0.91,4.37-0.364"/>
				<path style="fill:none;stroke:#263238;stroke-linecap:round;stroke-linejoin:round;stroke-miterlimit:10;" d="M430.405,206.947
					c0,0,2.185,1.639,5.826,1.092c3.641-0.546,8.557-1.275,11.834,0"/>
				<path style="fill:none;stroke:#263238;stroke-linecap:round;stroke-linejoin:round;stroke-miterlimit:10;" d="M444.97,210.771
					c0,0,8.375,3.641,11.652,8.375"/>
				<path style="fill:none;stroke:#263238;stroke-linecap:round;stroke-linejoin:round;stroke-miterlimit:10;" d="M463.508,194.761
					c1.548,0.265,2.704,0.527,3.129,0.716"/>
				<path style="fill:none;stroke:#263238;stroke-linecap:round;stroke-linejoin:round;stroke-miterlimit:10;" d="M440.419,197.298
					c0,0,4.37-2.185,8.193-3.277c2.157-0.616,7.095-0.305,11.284,0.213"/>
				<path style="fill:none;stroke:#263238;stroke-linecap:round;stroke-linejoin:round;stroke-miterlimit:10;" d="M445.881,197.844
					c0,0,10.014,1.639,16.022,0.546"/>
				<path style="fill:none;stroke:#263238;stroke-linecap:round;stroke-linejoin:round;stroke-miterlimit:10;" d="M437.324,170.716
					c0,0,9.103-6.008,15.658-8.375"/>
				<path style="fill:none;stroke:#263238;stroke-linecap:round;stroke-linejoin:round;stroke-miterlimit:10;" d="M469.688,161.003
					c1.949-1.855,2.592-2.849,2.592-2.849"/>
				<path style="fill:none;stroke:#263238;stroke-linecap:round;stroke-linejoin:round;stroke-miterlimit:10;" d="M443.15,169.806
					c0,0,11.834,2.367,19.481-3.095c1.5-1.071,2.782-2.051,3.875-2.935"/>
				<path style="fill:none;stroke:#263238;stroke-linecap:round;stroke-linejoin:round;stroke-miterlimit:10;" d="M463.897,146.894
					c3.971,1.151,7.109,2.156,7.109,2.156"/>
				<path style="fill:none;stroke:#263238;stroke-linecap:round;stroke-linejoin:round;stroke-miterlimit:10;" d="M434.411,149.05
					c0,0,10.196-4.916,14.019-5.462c1.713-0.245,6.421,0.826,11.098,2.083"/>
				<path style="fill:none;stroke:#263238;stroke-linecap:round;stroke-linejoin:round;stroke-miterlimit:10;" d="M441.147,148.504
					c0,0,6.008-0.364,11.652,0"/>
			</g>
			<path style="fill:#263238;" d="M413.884,160.149c-0.862,1.428-2.158,2.226-2.895,1.781s-0.635-1.963,0.228-3.391
				c0.862-1.428,2.159-2.226,2.895-1.781S414.746,158.721,413.884,160.149z"/>
			<path style="fill:#263238;" d="M430.047,171.456l-9.286-12.744c0,0-0.001-0.001-0.001-0.001
				c-4.628-6.405-9.852-9.864-10.39-10.211c-5.144-4.345-5.934-3.953-6.405-3.72c-0.795,0.397-3.209,3.222-3.894,6.005
				c-0.409,1.663-0.19,3.095,0.651,4.258c0.177,0.246,0.455,0.376,0.736,0.376c0.184,0,0.37-0.056,0.53-0.172
				c0.406-0.293,0.827-0.209,0.534-0.615c-0.469-0.65-0.939-2.096-0.76-3.083c0.393-2.162,2.204-4.403,2.854-5.013
				c0.706,0.315,2.449,1.594,4.015,2.876c-0.865,1.34-2.743,4.343-3.469,6.23c-0.929,2.417-1.627,5.309,0.251,8.439
				c1.012,1.686,2.612,2.844,4.39,3.176c0.322,0.06,0.687,0.101,1.089,0.101c1.175,0,2.657-0.348,4.23-1.571
				c2.246-1.747,3.976-3.795,4.904-5.002l8.553,11.739c0.178,0.243,0.453,0.373,0.734,0.373c0.184,0,0.372-0.057,0.533-0.174
				C430.252,172.428,430.341,171.861,430.047,171.456z M414.009,164.356c-1.25,0.972-2.59,1.36-3.872,1.119
				c-1.269-0.237-2.424-1.085-3.169-2.326c-1.473-2.455-0.925-4.745-0.113-6.855c0.64-1.665,2.367-4.443,3.228-5.786
				c1.567,1.13,5.363,4.114,8.825,8.746C418.171,160.251,416.375,162.516,414.009,164.356z"/>
			<path style="fill:none;stroke:#263238;stroke-linecap:round;stroke-linejoin:round;stroke-miterlimit:10;" d="M413.655,149.415
				c0,0,4.005-0.728,6.008,6.372"/>
		</g>
		<g>
			<path style="fill:#92E3A9;stroke:#263238;stroke-linecap:round;stroke-linejoin:round;stroke-miterlimit:10;" d="
				M372.389,293.167c0,0-25.775-8.162-35.87-10.31c-10.095-2.148-11.384,0-12.458,1.074c-1.074,1.074-12.673,13.532-13.961,16.109
				c-1.289,2.578-2.792,12.887-1.718,14.176c1.074,1.289,1.718,2.577,4.081-0.644c2.363-3.222,4.296-7.518,4.296-7.518
				s-0.43,12.458,0.215,15.035c0.644,2.577,2.578,4.296,2.578,4.296l0.859,1.718c0,0-1.289,1.933-0.859,3.222
				c0.43,1.289,3.651,2.577,6.229,0.215c2.578-2.363,7.947-5.585,7.947-5.585s4.94-1.718,8.162-4.081
				c3.222-2.363,12.028-7.733,12.028-7.733l10.31,3.651l11.384-22.768L372.389,293.167z"/>
			<polyline style="fill:none;stroke:#263238;stroke-linecap:round;stroke-linejoin:round;stroke-miterlimit:10;" points="
				316.758,306.055 317.832,302.618 330.504,288.871 			"/>
			<polyline style="fill:none;stroke:#263238;stroke-linecap:round;stroke-linejoin:round;stroke-miterlimit:10;" points="
				319.55,325.386 323.631,309.062 336.519,297.034 			"/>
			<path style="fill:none;stroke:#263238;stroke-linecap:round;stroke-linejoin:round;stroke-miterlimit:10;" d="M320.409,327.104
				c0,0,10.095-12.673,10.954-13.532c0.859-0.859,4.94-4.296,4.94-4.296"/>
		</g>
		<g>
			<path style="fill:#FFFFFF;stroke:#263238;stroke-linecap:round;stroke-linejoin:round;stroke-miterlimit:10;" d="
				M431.608,263.462c0,0-6.953,9.514-8.051,12.808c-1.098,3.294-5.489,32.569-5.489,32.569l-44.279-18.297l-13.54,30.007
				c0,0,35.497,28.178,52.696,36.595c17.199,8.417,36.594,18.663,40.254,17.199c3.659-1.464,19.029-30.373,21.957-46.475
				c2.928-16.102,8.051-35.497,4.757-51.232c-3.293-15.736-15.37-28.91-20.859-32.203"/>
			<path style="fill:none;stroke:#263238;stroke-linecap:round;stroke-linejoin:round;stroke-miterlimit:10;" d="M444.512,318.887
				c1.306,1.051,2.512,2.211,3.564,3.492"/>
			<path style="fill:none;stroke:#263238;stroke-linecap:round;stroke-linejoin:round;stroke-miterlimit:10;" d="M421.362,309.571
				c0,0,10.958,1.534,19.814,6.977"/>
			<path style="fill:none;stroke:#263238;stroke-linecap:round;stroke-linejoin:round;stroke-miterlimit:10;" d="M426.119,313.963
				c0,0,9.149,5.489,14.272,12.442"/>
		</g>
	</g>
</g>
</svg>
